# xmcd
#
# Track frame offsets:
#	150
#	25195
#	50244
#	71643
#	102252
#	120402
#	139186
#	157159
#	176630
#	200784
#	218873
#	249195
#
# Disc length: 3586 seconds
#
# Revision: 1
# Processed by: cddbd v1.5.2PL0 Copyright (c) Steve Scherf et al.
# Submitted via: audiograbber 1.83.01
#
DISCID=b40e000c
DTITLE=Dennis Schütze - Dennis Schütze live@u&d 2010
DYEAR=2010
DGENRE=Country
TTITLE0=Wagon Wheel
TTITLE1=Pictures In My Mind
TTITLE2=Ordinary Woman
TTITLE3=Silver And Gold
TTITLE4=Half As Good As You
TTITLE5=Tennesse Waltz
TTITLE6=Box #10
TTITLE7=Cinzia
TTITLE8=Black As The Devil
TTITLE9=Down To The Levee
TTITLE10=Hey Joe
TTITLE11=Poor Boy
EXTD=
EXTT0=
EXTT1=
EXTT2=
EXTT3=
EXTT4=
EXTT5=
EXTT6=
EXTT7=
EXTT8=
EXTT9=
EXTT10=
EXTT11=
PLAYORDER=
